<svg xmlns="http://www.w3.org/2000/svg" width="22" height="22" viewBox="0 0 22 22"><g transform="translate(-947 -555)"><rect width="22" height="22" transform="translate(947 555)" fill="#c7c7c7"/><ellipse cx="9" cy="8" rx="9" ry="8" transform="translate(949 559)" fill="#fff"/><path d="M12,19.2A7.232,7.232,0,0,1,6,16c.03-2,4-3.1,6-3.1S17.97,14,18,16a7.232,7.232,0,0,1-6,3.2M12,5A3,3,0,1,1,9,8a3,3,0,0,1,3-3m0-3A10,10,0,1,0,22,12,10,10,0,0,0,12,2Z" transform="translate(946 554)" fill="#c7c7c7"/></g></svg>